<?xml version="1.0" encoding="UTF-8"?>
<svg width="1220px" height="121px" viewBox="0 0 1220 121" version="1.1" xmlns="http://www.w3.org/2000/svg" xmlns:xlink="http://www.w3.org/1999/xlink">
    <!-- Generator: Sketch 48.2 (47327) - http://www.bohemiancoding.com/sketch -->
    <title>SVG</title>
    <desc>Created with Sketch.</desc>
    <defs></defs>
    <g id="Artboard" stroke="none" stroke-width="1" fill="none" fill-rule="evenodd" transform="translate(0.000000, -112.000000)">
        <path d="M484.23587,115.55874 L403.830594,214.491704 C397.491589,222.320931 381.477261,222.320931 374.804624,214.491704 L294.399348,115.55874 C293.064821,113.897995 294.73298,112 297.402035,112 L481.233183,112 C483.902238,112 485.570397,113.897995 484.23587,115.55874 Z M187.303525,112 L3.47237657,112 C0.803321782,112 -0.864837459,113.897995 0.469689934,115.55874 L80.8749654,214.491704 C87.2139705,222.320931 103.228299,222.320931 109.900936,214.491704 L190.306212,115.55874 C191.640739,113.897995 189.97258,112 187.303525,112 Z M257.032581,129.793699 C250.693576,121.964471 234.679247,121.964471 228.00661,129.793699 L147.601335,228.726663 C146.266808,230.387408 147.934967,232.285402 150.604022,232.285402 L334.43517,232.285402 C337.104225,232.285402 338.772384,230.387408 337.437857,228.726663 L257.032581,129.793699 Z M550.96224,129.793699 C544.623234,121.964471 528.608906,121.964471 521.936269,129.793699 L441.530993,228.726663 C440.196466,230.387408 441.864625,232.285402 444.53368,232.285402 L628.364828,232.285402 C631.033883,232.285402 632.702042,230.387408 631.367515,228.726663 L550.96224,129.793699 Z M775.162842,112 L591.331693,112 C588.662638,112 586.994479,113.897995 588.329007,115.55874 L668.734282,214.491704 C675.073287,222.320931 691.087616,222.320931 697.760253,214.491704 L778.165528,115.55874 C779.500056,113.897995 777.831896,112 775.162842,112 Z M1218.8932,228.726663 L1138.48792,129.793699 C1132.14892,121.964471 1116.13459,121.964471 1109.46195,129.793699 L1029.05668,228.726663 C1027.72215,230.387408 1029.39031,232.285402 1032.05936,232.285402 L1215.89051,232.285402 C1218.55957,232.285402 1220.22773,230.387408 1218.8932,228.726663 Z M1069.0925,112 L885.261351,112 C882.592297,112 880.924137,113.897995 882.258665,115.55874 L962.66394,214.491704 C969.002945,222.320931 985.017274,222.320931 991.689911,214.491704 L1072.09519,115.55874 C1073.09608,113.897995 1071.76155,112 1069.0925,112 Z M844.558266,129.793699 C838.219261,121.964471 822.204932,121.964471 815.532295,129.793699 L735.12702,228.726663 C733.792492,230.387408 735.460652,232.285402 738.129706,232.285402 L921.960855,232.285402 C924.62991,232.285402 926.298069,230.387408 924.963541,228.726663 L844.558266,129.793699 Z" id="SVG" fill="#323232" fill-rule="nonzero"></path>
    </g>
</svg>