<?xml version="1.0" encoding="UTF-8"?>
<svg width="105px" height="236px" viewBox="0 0 105 236" version="1.1" xmlns="http://www.w3.org/2000/svg" xmlns:xlink="http://www.w3.org/1999/xlink">
    <!-- Generator: Sketch 48.2 (47327) - http://www.bohemiancoding.com/sketch -->
    <title>Squirrel SVG</title>
    <desc>Created with Sketch.</desc>
    <defs></defs>
    <g id="squirrel-down" stroke="none" stroke-width="1" fill="none" fill-rule="evenodd" transform="translate(-76.000000, -10.000000)">
        <path d="M137.165945,96.9712092 C137.620181,97.8771593 137.620181,98.7831094 137.165945,99.6890595 L130.806646,106.93666 L130.806646,110.107486 L135.349003,113.278311 C136.257474,114.184261 136.71171,115.543186 135.803238,116.449136 C135.349003,116.902111 134.894767,117.355086 133.986296,117.355086 C133.53206,117.355086 133.077825,117.355086 132.623589,116.902111 L128.535468,113.731286 L124.447347,116.902111 C123.538876,117.808061 122.176169,117.355086 121.267697,116.449136 C120.359226,115.543186 120.813462,114.184261 121.721933,113.278311 L126.26429,110.107486 L126.26429,106.93666 L119.90499,99.6890595 C119.450755,98.7831094 118.996519,97.8771593 119.90499,96.9712092 L127.172761,86.0998081 C128.081232,84.7408829 130.352411,84.7408829 130.806646,86.0998081 L137.165945,96.9712092 Z M179.409862,171.712092 L167.599735,191.190019 L171.23362,203.420345 C171.687856,204.779271 171.23362,205.685221 170.779385,207.044146 L150.793015,243.735125 C149.884544,245.09405 148.521837,246 146.704894,246 L128.081232,246 L109.45757,246 C107.640627,246 106.27792,245.09405 105.369449,243.735125 L85.3830799,207.044146 C84.9288442,206.138196 84.4746086,204.779271 84.9288442,203.420345 L88.5627295,191.190019 L76.7526023,171.712092 C75.844131,170.353167 75.844131,168.994242 76.2983666,168.088292 L94.4677931,115.090211 L87.6542582,109.654511 C86.2915512,108.74856 85.8373156,106.93666 85.8373156,105.12476 L100.372857,46.6909789 L101.281328,14.5297505 C101.281328,12.2648752 103.098271,10.452975 105.369449,10 C107.640627,10 109.911806,11.3589251 110.366041,13.6238004 L117.633812,43.0671785 L127.626997,43.0671785 L137.620181,43.0671785 L144.887952,13.6238004 C145.342187,11.3589251 147.613366,10 149.884544,10 C152.155722,10.452975 153.972665,12.2648752 153.972665,14.5297505 L154.881136,46.6909789 L169.416678,105.12476 C169.870913,106.93666 169.416678,108.74856 167.599735,109.654511 L160.7862,115.090211 L178.955626,168.088292 C180.318333,168.994242 180.318333,170.353167 179.409862,171.712092 Z M152.609958,171.712092 L140.799831,131.397313 L130.806646,139.097889 C130.806646,139.097889 130.352411,139.097889 130.352411,139.550864 C130.352411,139.550864 129.898175,139.550864 129.898175,140.003839 C129.443939,140.456814 128.535468,140.456814 128.081232,140.456814 L128.081232,140.456814 L128.081232,140.456814 C127.626997,140.456814 126.718525,140.456814 126.26429,140.003839 C126.26429,140.003839 125.810054,140.003839 125.810054,139.550864 C125.810054,139.550864 125.355818,139.550864 125.355818,139.097889 L115.362634,131.397313 L103.552506,171.712092 L128.081232,188.925144 L152.609958,171.712092 Z M160.7862,104.21881 L160.7862,104.21881 L128.535468,72.5105566 L96.2847358,104.21881 L96.2847358,104.21881 L116.271105,120.072937 L116.271105,120.072937 L128.535468,129.585413 L140.799831,120.072937 L140.799831,120.072937 L160.7862,104.21881 Z M153.064194,73.8694818 C152.155722,75.2284069 150.793015,76.5873321 148.976073,76.5873321 C146.250659,76.5873321 144.433716,74.7754319 144.433716,72.0575816 C144.433716,69.3397313 146.250659,67.5278311 148.976073,67.5278311 C149.884544,67.5278311 150.793015,67.9808061 151.701487,68.4337812 L148.067601,53.9385797 L131.715118,69.7927063 L158.515022,96.0652591 L153.064194,73.8694818 Z M148.976073,71.6046065 L148.976073,71.6046065 L151.247251,71.6046065 L148.976073,71.6046065 Z M114.454162,51.6737044 C113.999927,51.6737044 113.545691,51.6737044 113.091455,51.2207294 L128.081232,66.168906 L143.071009,51.2207294 C142.616773,51.2207294 142.162538,51.6737044 141.708302,51.6737044 L128.081232,51.6737044 L114.454162,51.6737044 Z M98.1016785,95.6122841 L124.901583,69.3397313 L108.549099,53.4856046 L104.915213,67.9808061 C105.823685,67.5278311 106.732156,67.074856 107.640627,67.074856 C110.366041,67.074856 112.182984,68.8867562 112.182984,71.6046065 C112.182984,74.3224568 110.366041,76.134357 107.640627,76.134357 C105.823685,76.134357 104.460978,75.2284069 103.552506,73.4165067 L98.1016785,95.6122841 Z M107.640627,71.6046065 L107.640627,71.6046065 L105.369449,71.6046065 L107.640627,71.6046065 Z M92.1966148,178.959693 L108.094863,125.055662 L102.189799,120.525912 L85.8373156,168.541267 L92.1966148,178.959693 Z M162.148907,203.873321 L153.972665,176.241843 L129.443939,193.454894 L129.443939,193.454894 C128.989704,193.454894 128.535468,193.907869 128.081232,193.907869 C127.626997,193.907869 127.172761,193.907869 126.718525,193.454894 L126.718525,193.454894 L102.189799,176.241843 L94.0135575,203.873321 L112.182984,236.487524 L125.810054,236.487524 L125.810054,221.992322 C125.810054,220.633397 126.718525,219.727447 128.081232,219.727447 C129.443939,219.727447 130.352411,220.633397 130.352411,221.992322 L130.352411,236.487524 L143.97948,236.487524 L162.148907,203.873321 Z M170.779385,168.541267 L154.426901,120.525912 L148.521837,125.055662 L164.420085,178.959693 L170.779385,168.541267 Z" id="Squirrel-SVG" fill="#231F20" fill-rule="nonzero" transform="translate(128.021505, 128.000000) rotate(180.000000) translate(-128.021505, -128.000000) "></path>
    </g>
</svg>