<?xml version="1.0" encoding="UTF-8"?>
<svg width="256px" height="256px" viewBox="0 0 256 256" version="1.1" xmlns="http://www.w3.org/2000/svg" xmlns:xlink="http://www.w3.org/1999/xlink">
    <!-- Generator: Sketch 48.2 (47327) - http://www.bohemiancoding.com/sketch -->
    <title>acorn-quote</title>
    <desc>Created with Sketch.</desc>
    <defs></defs>
    <g id="Page-1" stroke="none" stroke-width="1" fill="none" fill-rule="evenodd">
        <g id="acorn-quote" fill="#231F20" fill-rule="nonzero">
            <path d="M197.443324,66.6754221 L178.359284,66.6754221 C170.118449,57.3771107 160.142702,50.2926829 149.299497,46.750469 C151.468138,43.2082552 152.769323,38.7804878 152.769323,34.3527205 C152.769323,21.0694184 142.359847,10 128.914274,10 C115.902429,10 105.059225,20.6266417 105.059225,34.3527205 C105.059225,38.7804878 106.360409,42.7654784 108.52905,46.750469 C97.2521177,50.2926829 86.8426418,57.3771107 78.6018066,67.1181989 L60.3852237,67.1181989 C49.1082915,67.1181989 40,76.4165103 40,87.9287054 C40,99.4409006 49.1082915,108.739212 60.3852237,108.739212 L62.1201364,108.739212 L62.1201364,111.838649 C62.1201364,189.767355 115.468701,245.114447 191.371129,246 L191.371129,246 C193.106042,246 194.407227,245.557223 195.708411,244.228893 C197.009596,242.900563 197.443324,241.572233 197.443324,239.801126 L197.443324,207.035647 C197.443324,203.493433 194.840955,200.836773 191.371129,200.836773 C171.419634,200.393996 153.636779,193.309568 138.022565,179.140713 C170.985906,174.270169 196.142139,144.161351 194.840955,109.181989 L196.575867,109.181989 C207.8528,109.181989 216.961091,99.8836773 216.961091,88.3714822 C216.961091,76.8592871 208.720256,66.6754221 197.443324,66.6754221 Z M88.1438263,79.5159475 L100.721943,99.4409006 L75.5657095,99.4409006 L88.1438263,79.5159475 Z M95.9509332,75.5309568 L121.107167,75.5309568 L108.52905,95.4559099 L95.9509332,75.5309568 Z M129.348002,79.5159475 L141.926119,99.4409006 L116.769885,99.4409006 L129.348002,79.5159475 Z M137.155109,75.5309568 L162.311342,75.5309568 L149.733226,95.4559099 L137.155109,75.5309568 Z M170.552178,79.5159475 L183.130294,99.4409006 L157.974061,99.4409006 L170.552178,79.5159475 Z M114.167516,33.9099437 C114.167516,25.4971857 120.673439,18.412758 129.348002,18.412758 C138.022565,18.412758 144.528488,25.054409 144.528488,33.9099437 C144.528488,37.4521576 143.227303,40.9943715 140.624934,44.0938086 C138.022565,43.6510319 135.420196,43.2082552 132.817827,43.2082552 C128.046817,42.7654784 122.842079,43.2082552 118.07107,44.0938086 C115.902429,41.4371482 114.167516,37.8949343 114.167516,33.9099437 Z M132.384099,52.0637899 C144.528488,52.5065666 156.672876,57.8198874 166.648624,66.6754221 L91.6136516,66.6754221 C102.456856,56.4915572 116.769885,51.1782364 132.384099,52.0637899 Z M49.5420196,87.4859287 C49.5420196,80.8442777 54.7467576,75.5309568 61.2526801,75.5309568 L80.3367193,75.5309568 L65.1562335,99.4409006 L60.8189519,99.4409006 C54.7467576,99.4409006 49.5420196,94.1275797 49.5420196,87.4859287 Z M187.033848,108.296435 C188.335032,141.061914 163.612527,168.514071 131.950371,169.842402 C129.78173,169.842402 127.613089,171.170732 127.179361,173.384615 C126.311905,175.598499 126.745633,177.812383 128.480546,179.58349 C145.829672,197.737336 166.648624,207.478424 190.069945,208.806754 L190.069945,236.258912 C120.23971,234.045028 71.662156,183.125704 71.662156,110.953096 L71.662156,107.853659 L187.033848,108.296435 L187.033848,108.296435 Z M197.443324,99.4409006 L193.106042,99.4409006 L177.925556,75.5309568 L197.009596,75.5309568 C203.515518,75.5309568 208.720256,80.8442777 208.720256,87.4859287 C208.720256,94.1275797 203.949246,99.4409006 197.443324,99.4409006 Z" id="Quote-SVG"></path>
        </g>
    </g>
</svg>