<?xml version="1.0" encoding="UTF-8"?>
<svg width="256px" height="256px" viewBox="0 0 256 256" version="1.1" xmlns="http://www.w3.org/2000/svg" xmlns:xlink="http://www.w3.org/1999/xlink">
    <!-- Generator: Sketch 49 (51002) - http://www.bohemiancoding.com/sketch -->
    <title>download</title>
    <desc>Created with Sketch.</desc>
    <defs></defs>
    <g id="download" stroke="none" stroke-width="1" fill="none" fill-rule="evenodd">
        <path d="M215.346291,88.4826643 C214.597741,58.8208778 190.34912,35 160.528773,35 C143.061358,35 127.511414,43.1787472 117.466821,55.9114858 C111.832409,48.6287871 103.019422,43.9346729 93.103889,43.9346729 C76.0937173,43.9346729 62.3026828,57.7330823 62.3026828,74.7543163 C62.3026828,76.2366682 62.413306,77.6932079 62.6161154,79.1239356 C60.0312183,78.6556304 57.3688849,78.4011969 54.6475524,78.4011969 C29.9896252,78.4011969 10,98.4018843 10,123.074561 C10,147.747238 29.9896252,167.747926 54.6475524,167.747926 L75.7950345,167.747926 L127.998156,221.794769 L180.201278,167.747926 L205.895377,167.744238 C228.053218,167.703677 246,149.72002 246,127.540054 C246,108.619787 232.939079,92.7637849 215.349979,88.4789769 L215.346291,88.4826643 Z M127.998156,197.247465 L83.7488477,152.998156 L113.248387,152.998156 L113.248387,108.748848 L142.747926,108.748848 L142.747926,152.998156 L172.247465,152.998156 L127.998156,197.247465 Z" id="Shape" fill="#000000" fill-rule="nonzero"></path>
    </g>
</svg>