<?xml version="1.0" encoding="UTF-8"?>
<svg width="256px" height="256px" viewBox="0 0 256 256" version="1.1" xmlns="http://www.w3.org/2000/svg" xmlns:xlink="http://www.w3.org/1999/xlink">
    <!-- Generator: Sketch 48.2 (47327) - http://www.bohemiancoding.com/sketch -->
    <title>instagram</title>
    <desc>Created with Sketch.</desc>
    <defs></defs>
    <g id="Page-1" stroke="none" stroke-width="1" fill="none" fill-rule="evenodd">
        <g id="instagram" fill="#000000" fill-rule="nonzero">
            <g id="instagram-logo" transform="translate(10.000000, 10.000000)">
                <path d="M169.928329,0 L64.7667294,0 C29.0543765,0 0,29.0557647 0,64.7681176 L0,169.929718 C0,205.643459 29.0543765,234.697835 64.7667294,234.697835 L169.928329,234.697835 C205.643459,234.697835 234.697835,205.642071 234.697835,169.929718 L234.697835,64.7681176 C234.699224,29.0557647 205.643459,0 169.928329,0 Z M213.875694,169.929718 C213.875694,194.161365 194.161365,213.874306 169.929718,213.874306 L64.7667294,213.874306 C40.5364706,213.875694 20.8235294,194.161365 20.8235294,169.929718 L20.8235294,64.7681176 C20.8235294,40.5378588 40.5364706,20.8235294 64.7667294,20.8235294 L169.928329,20.8235294 C194.159976,20.8235294 213.874306,40.5378588 213.874306,64.7681176 L213.874306,169.929718 L213.875694,169.929718 Z" id="Shape"></path>
                <path d="M117.348918,56.876 C84.0021176,56.876 56.8732235,84.0048941 56.8732235,117.351694 C56.8732235,150.697106 84.0021176,177.824612 117.348918,177.824612 C150.695718,177.824612 177.824612,150.697106 177.824612,117.351694 C177.824612,84.0048941 150.695718,56.876 117.348918,56.876 Z M117.348918,156.999694 C95.4856,156.999694 77.6967529,139.213624 77.6967529,117.350306 C77.6967529,95.4856 95.4842118,77.6981412 117.348918,77.6981412 C139.213624,77.6981412 157.001082,95.4856 157.001082,117.350306 C157.001082,139.213624 139.212235,156.999694 117.348918,156.999694 Z" id="Shape"></path>
                <path d="M180.360918,39.2190353 C176.348918,39.2190353 172.407718,40.8432706 169.574329,43.6891529 C166.727059,46.5211529 165.090329,50.4637412 165.090329,54.4896235 C165.090329,58.5030118 166.728447,62.4442118 169.574329,65.2900941 C172.406329,68.1220941 176.348918,69.7602118 180.360918,69.7602118 C184.3868,69.7602118 188.315506,68.1220941 191.161388,65.2900941 C194.007271,62.4442118 195.631506,58.5016235 195.631506,54.4896235 C195.631506,50.4637412 194.007271,46.5211529 191.161388,43.6891529 C188.329388,40.8432706 184.3868,39.2190353 180.360918,39.2190353 Z" id="Shape"></path>
            </g>
        </g>
    </g>
</svg>