<?xml version="1.0" encoding="UTF-8"?>
<svg width="388px" height="256px" viewBox="0 0 388 256" version="1.1" xmlns="http://www.w3.org/2000/svg" xmlns:xlink="http://www.w3.org/1999/xlink">
    <!-- Generator: Sketch 48.2 (47327) - http://www.bohemiancoding.com/sketch -->
    <title>feature-quote-bg</title>
    <desc>Created with Sketch.</desc>
    <defs></defs>
    <g id="Page-1" stroke="none" stroke-width="1" fill="none" fill-rule="evenodd">
        <g id="feature-quote-bg" fill="#5DB6B0" fill-rule="nonzero">
            <path d="M170.769463,61.4724791 L150.070134,61.4724791 C141.131788,51.3871504 130.311684,43.7030906 118.550701,39.8610606 C120.902898,36.0190307 122.314217,31.2164932 122.314217,26.4139559 C122.314217,12.0063436 111.023673,0 96.4400549,0 C82.3268762,0 70.5658939,11.5260898 70.5658939,26.4139559 C70.5658939,31.2164932 71.9772117,35.5387769 74.3294083,39.8610606 C62.0979866,43.7030906 50.8074436,51.3871504 41.869097,61.9527327 L22.1106468,61.9527327 C9.87922515,61.9527327 0,72.0380614 0,84.5246586 C0,97.011256 9.87922515,107.096584 22.1106468,107.096584 L23.9924039,107.096584 L23.9924039,110.458361 C23.9924039,194.983019 81.8564369,255.014738 164.183313,255.975244 C166.06507,255.975244 167.476388,255.494991 168.887706,254.05423 C170.299024,252.613469 170.769463,251.172707 170.769463,249.251692 L170.769463,213.712915 C170.769463,209.870886 167.946827,206.989363 164.183313,206.989363 C142.543106,206.509109 123.255095,198.82505 106.31928,183.456929 C142.072667,178.174139 169.358145,145.516884 167.946827,107.576838 L169.828585,107.576838 C182.060007,107.576838 191.939231,97.4915096 191.939231,85.0049124 C191.939231,72.518315 183.000885,61.4724791 170.769463,61.4724791 Z M52.2187615,75.3998376 L65.8615009,97.011256 L38.576022,97.011256 L52.2187615,75.3998376 Z M60.6866687,71.0775539 L87.9721477,71.0775539 L74.3294083,92.6889723 L60.6866687,71.0775539 Z M96.9104943,75.3998376 L110.553234,97.011256 L83.2677547,97.011256 L96.9104943,75.3998376 Z M105.378402,71.0775539 L132.66388,71.0775539 L119.021141,92.6889723 L105.378402,71.0775539 Z M141.602228,75.3998376 L155.244966,97.011256 L127.959488,97.011256 L141.602228,75.3998376 Z M80.445119,25.9337021 C80.445119,16.808881 87.5017084,9.1248211 96.9104943,9.1248211 C106.31928,9.1248211 113.375869,16.3286272 113.375869,25.9337021 C113.375869,29.7757321 111.964552,33.6177619 109.141916,36.9795382 C106.31928,36.4992844 103.496645,36.0190307 100.674009,36.0190307 C95.4991764,35.5387769 89.8539049,36.0190307 84.6790726,36.9795382 C82.3268762,34.0980157 80.445119,30.2559857 80.445119,25.9337021 Z M100.203569,45.6241055 C113.375869,46.1043593 126.54817,51.8674041 137.368273,61.4724791 L55.9822758,61.4724791 C67.7432581,50.426643 83.2677547,44.663598 100.203569,45.6241055 Z M10.3496645,84.0444049 C10.3496645,76.8405987 15.994936,71.0775539 23.0515253,71.0775539 L43.7508542,71.0775539 L27.285479,97.011256 L22.581086,97.011256 C15.994936,97.011256 10.3496645,91.248211 10.3496645,84.0444049 Z M159.478921,106.616331 C160.890238,142.155108 134.075198,171.93084 99.73313,173.371601 C97.3809336,173.371601 95.0287371,174.812362 94.5582978,177.213631 C93.6174192,179.6149 94.0878585,182.016168 95.9696157,183.937183 C114.787187,203.627586 137.368273,214.193169 162.771996,215.63393 L162.771996,245.409662 C87.0312691,243.008394 34.3420683,187.779213 34.3420683,109.497853 L34.3420683,106.136077 L159.478921,106.616331 Z M170.769463,97.011256 L166.06507,97.011256 L149.599695,71.0775539 L170.299024,71.0775539 C177.355613,71.0775539 183.000885,76.8405987 183.000885,84.0444049 C183.000885,91.248211 177.826052,97.011256 170.769463,97.011256 Z M363.649573,106.616331 L365.531331,106.616331 C377.762752,106.616331 387.641977,96.5310022 387.641977,84.0444049 C387.641977,71.5578076 377.762752,61.4724791 365.531331,61.4724791 L344.832001,61.4724791 C335.893655,51.3871504 325.073551,43.7030906 313.312569,39.8610606 C315.664765,36.0190307 317.076083,31.2164932 317.076083,26.4139559 C317.076083,12.0063436 305.78554,2.27373675e-13 291.201923,2.27373675e-13 C277.088744,2.27373675e-13 265.327761,11.5260898 265.327761,26.4139559 C265.327761,31.2164932 266.739079,35.5387769 269.091275,39.8610606 C256.859854,43.7030906 245.569311,51.3871504 236.630965,61.9527327 L216.872514,61.9527327 C204.641092,61.9527327 194.761867,72.0380614 194.761867,84.5246586 C194.761867,97.011256 204.641092,107.096584 216.872514,107.096584 L218.754271,107.096584 L218.754271,110.458361 C218.754271,194.983019 276.618304,255.014738 358.94518,255.975244 C360.826937,255.975244 362.238255,255.494991 363.649573,254.05423 C365.060891,252.613469 365.531331,251.172707 365.531331,249.251692 L365.531331,213.712915 C365.531331,209.870886 362.708694,206.989363 358.94518,206.989363 C337.304973,206.509109 318.016962,198.82505 301.081147,183.456929 C338.245851,177.213631 365.060891,144.556377 363.649573,106.616331 Z M246.980628,75.3998376 L260.623368,97.011256 L233.337889,97.011256 L246.980628,75.3998376 Z M255.918975,71.0775539 L283.204454,71.0775539 L269.561714,92.6889723 L255.918975,71.0775539 Z M291.672362,75.3998376 L305.315101,97.011256 L278.029622,97.011256 L291.672362,75.3998376 Z M300.140269,71.0775539 L327.425747,71.0775539 L313.783008,92.6889723 L300.140269,71.0775539 Z M336.364094,75.3998376 L350.006834,97.011256 L322.721354,97.011256 L336.364094,75.3998376 Z M378.233191,84.0444049 C378.233191,91.248211 372.58792,97.011256 365.531331,97.011256 L360.826937,97.011256 L344.361562,71.0775539 L365.060891,71.0775539 C372.58792,71.0775539 378.233191,76.8405987 378.233191,84.0444049 Z M275.677426,25.9337021 C275.677426,16.808881 282.734015,9.1248211 292.142801,9.1248211 C301.551586,9.1248211 308.608175,16.3286272 308.608175,25.9337021 C308.608175,29.7757321 307.196858,33.6177619 304.374222,36.9795382 C301.551586,36.4992844 298.728951,36.0190307 295.906315,36.0190307 C290.731483,35.5387769 285.086211,36.0190307 279.911379,36.9795382 C277.088744,34.0980157 275.677426,30.2559857 275.677426,25.9337021 Z M294.965437,45.6241055 C308.137736,46.1043593 321.310037,51.8674041 332.130141,61.4724791 L250.744143,61.4724791 C262.505125,50.426643 278.029622,44.663598 294.965437,45.6241055 Z M205.111532,84.0444049 C205.111532,76.8405987 210.756803,71.0775539 217.813393,71.0775539 L238.512722,71.0775539 L222.047346,97.011256 L217.342954,97.011256 C210.756803,97.011256 205.111532,91.248211 205.111532,84.0444049 Z M294.494997,173.371601 C292.142801,173.371601 289.790604,174.812362 289.320164,177.213631 C288.379286,179.6149 288.849725,182.016168 290.731483,183.937183 C309.549055,203.627586 332.130141,214.193169 357.533862,215.63393 L357.533862,245.409662 C281.793136,243.008394 229.103935,187.779213 229.103935,109.497853 L229.103935,106.136077 L354.240787,106.136077 C355.652105,142.155108 328.837066,171.93084 294.494997,173.371601 Z"></path>
        </g>
    </g>
</svg>