<?xml version="1.0" encoding="UTF-8"?>
<svg width="160px" height="256px" viewBox="0 0 160 256" version="1.1" xmlns="http://www.w3.org/2000/svg" xmlns:xlink="http://www.w3.org/1999/xlink">
    <!-- Generator: Sketch 48.2 (47327) - http://www.bohemiancoding.com/sketch -->
    <title>feature-mic-bg</title>
    <desc>Created with Sketch.</desc>
    <defs></defs>
    <g id="Page-1" stroke="none" stroke-width="1" fill="none" fill-rule="evenodd">
        <path d="M153.855512,113.545008 L138.904036,113.545008 L138.904036,74.9983633 L139.386342,74.9983633 C149.997067,74.9983633 158.196264,67.4566285 158.196264,58.6579378 C158.196264,49.8592471 149.514761,42.3175123 139.386342,42.3175123 L122.987949,42.3175123 C116.235669,35.613748 107.554167,30.5859247 98.3903591,27.6530278 C99.8372761,25.1391162 100.801887,21.787234 100.801887,18.8543372 C100.801887,8.3797054 91.1557739,0 79.0981318,0 C67.0404898,0 57.3943761,8.3797054 57.3943761,18.8543372 C57.3943761,21.787234 58.3589875,24.7201309 59.8059045,27.6530278 C50.1597909,30.5859247 41.4782886,35.613748 34.7260091,42.7364975 L19.2922273,42.7364975 C8.68150227,42.7364975 0.482305682,50.2782324 0.482305682,59.0769231 C0.482305682,67.8756137 9.16380795,75.4173486 19.2922273,75.4173486 L19.774533,75.4173486 L19.774533,76.6743044 L19.774533,113.545008 L4.82305682,113.545008 C1.92922273,113.545008 0,115.220949 0,117.734861 L0,155.443535 C0,188.543372 27.0091182,216.196399 63.1820443,222.900164 L63.1820443,247.620295 L43.889817,247.620295 C40.9959829,247.620295 39.0667602,249.296236 39.0667602,251.810147 C39.0667602,254.324059 40.9959829,256 43.889817,256 L115.271058,256 C118.164892,256 120.094115,254.324059 120.094115,251.810147 C120.094115,249.296236 118.164892,247.620295 115.271058,247.620295 L95.9788307,247.620295 L95.9788307,222.900164 C132.151757,216.196399 159.160875,188.543372 159.160875,155.443535 L159.160875,117.734861 C158.678569,115.639935 156.749347,113.545008 153.855512,113.545008 Z M139.386342,50.6972177 C144.691705,50.6972177 148.55015,54.4680851 148.55015,58.6579378 C148.55015,62.8477905 144.209399,66.6186579 139.386342,66.6186579 L136.492508,66.6186579 L124.434866,50.6972177 L139.386342,50.6972177 L139.386342,50.6972177 Z M29.4206466,113.545008 L29.4206466,76.6743044 L29.4206466,75.4173486 L129.257923,75.4173486 L129.257923,113.963993 L29.4206466,113.963993 L29.4206466,113.545008 Z M129.257923,121.924714 L129.257923,149.577741 C129.257923,173.459902 107.071861,192.733224 79.5804375,192.733224 C52.0890136,192.733224 29.9029523,173.459902 29.9029523,149.577741 L29.9029523,121.924714 L129.257923,121.924714 Z M88.7442454,67.0376432 L70.4166295,67.0376432 L79.5804375,54.4680851 L88.7442454,67.0376432 Z M88.2619398,50.6972177 L106.589556,50.6972177 L97.4257477,63.2667758 L88.2619398,50.6972177 Z M61.2528216,63.2667758 L52.0890136,50.6972177 L70.4166295,50.6972177 L61.2528216,63.2667758 Z M124.917172,67.0376432 L106.589556,67.0376432 L115.753364,54.4680851 L124.917172,67.0376432 Z M79.0981318,8.3797054 C85.8504114,8.3797054 91.1557739,12.9885434 91.1557739,18.8543372 C91.1557739,21.3682488 90.1911625,23.4631751 88.2619398,25.5581015 C86.332717,25.1391162 83.9211886,25.1391162 81.9919659,24.7201309 C77.6512148,24.7201309 73.7927693,24.7201309 69.4520182,25.5581015 C67.5227954,23.8821604 66.5581841,21.3682488 66.5581841,18.8543372 C67.0404898,12.9885434 72.8281579,8.3797054 79.0981318,8.3797054 Z M81.9919659,33.0998363 C91.6380795,33.5188216 101.284193,36.8707038 109.001084,42.3175123 L48.7128739,42.3175123 C57.8766818,36.0327332 69.4520182,32.6808511 81.9919659,33.0998363 Z M42.9252057,54.4680851 L52.0890136,67.0376432 L33.7613977,67.0376432 L42.9252057,54.4680851 Z M19.2922273,67.0376432 C13.9868648,67.0376432 10.1284193,63.2667758 10.1284193,59.0769231 C10.1284193,54.8870704 14.4691705,51.1162029 19.2922273,51.1162029 L34.2437034,51.1162029 L22.1860614,67.0376432 L19.2922273,67.0376432 L19.2922273,67.0376432 Z M85.8504114,247.620295 L72.3458523,247.620295 L72.3458523,224.157119 C74.7573807,224.157119 76.6866034,224.576105 79.0981318,224.576105 C81.5096602,224.576105 83.4388829,224.576105 85.8504114,224.157119 L85.8504114,247.620295 L85.8504114,247.620295 Z M149.032456,155.443535 C149.032456,188.962357 117.682586,216.196399 79.0981318,216.196399 C40.5136773,216.196399 9.16380795,188.962357 9.16380795,155.443535 L9.16380795,121.924714 L19.2922273,121.924714 L19.2922273,149.577741 C19.2922273,178.06874 45.8190398,201.11293 78.6158261,201.11293 C111.412612,201.11293 137.939425,178.06874 137.939425,149.577741 L137.939425,121.924714 L148.067844,121.924714 L148.067844,155.443535 L149.032456,155.443535 Z" id="feature-mic-bg" fill="#B0B915" fill-rule="nonzero"></path>
    </g>
</svg>