<?xml version="1.0" encoding="UTF-8"?>
<svg width="80px" height="28px" viewBox="0 0 80 28" version="1.1" xmlns="http://www.w3.org/2000/svg" xmlns:xlink="http://www.w3.org/1999/xlink">
    <!-- Generator: Sketch 48.2 (47327) - http://www.bohemiancoding.com/sketch -->
    <title>iTunes</title>
    <desc>Created with Sketch.</desc>
    <defs></defs>
    <g id="Home-—-Desktop" stroke="none" stroke-width="1" fill="none" fill-rule="evenodd" transform="translate(-1134.000000, -11.000000)">
        <g id="Navigation" transform="translate(0.000000, -35.000000)">
            <g id="iTunes" transform="translate(1134.000000, 46.000000)">
                <rect id="iTunes-Marker" fill="#6078EA" x="0" y="1.13686838e-13" width="80" height="28" rx="4"></rect>
                <g id="available-on-itunes" transform="translate(5.000000, 3.000000)" fill="#FFFFFF" fill-rule="nonzero">
                    <g id="Livetype">
                        <path d="M17.2885116,15.2960769 C17.2724651,15.3687692 16.868093,16.7838462 15.8611744,18.2223462 C15.0203372,19.4871923 14.1393837,20.7253846 12.7401279,20.748 C11.3809884,20.7795 10.9236628,19.9419231 9.36474419,19.9419231 C7.79138372,19.9419231 7.30437209,20.7253846 6.00059302,20.7795 C4.66793023,20.8287692 3.64977907,19.4274231 2.77845349,18.1730769 C1.03660465,15.6126923 -0.319325581,10.9563462 1.49874419,7.78776923 C2.37969767,6.23376923 3.98595349,5.23303846 5.70293023,5.20638462 C7.03719767,5.17892308 8.27518605,6.11342308 9.09516279,6.11342308 C9.89909302,6.11342308 11.4299302,4.99557692 13.0081047,5.16276923 C13.6684186,5.18215385 15.5474651,5.42526923 16.7597791,7.20461538 C16.6618953,7.26357692 14.5212907,8.53003846 14.5445581,11.1332308 C14.5710349,14.2525385 17.2556163,15.2847692 17.2885116,15.2960769 Z M11.9771163,3.47792308 C12.6783488,2.59511538 13.1581395,1.39407692 13.0249535,0.175269231 C12.0100116,0.2205 10.7407326,0.882 10.009814,1.74542308 C9.36313953,2.50626923 8.78546512,3.75334615 8.93469767,4.92611538 C10.0748023,5.01173077 11.2453953,4.347 11.9771163,3.47792308 Z M29.5889651,6.0375 L29.1236163,4.57073077 L27.4997093,4.57073077 L27.0568256,6.0375 L26.0884186,6.0375 L27.735593,0.862615385 L28.9334651,0.862615385 L30.603907,6.0375 L29.5889651,6.0375 Z M28.9711744,3.85673077 L28.5668023,2.58219231 C28.467314,2.268 28.3838721,1.91423077 28.3076512,1.61538462 L28.292407,1.61538462 C28.216186,1.91503846 28.1319419,2.27526923 28.0485,2.583 L27.6521512,3.85753846 L28.9711744,3.85753846 L28.9711744,3.85673077 Z M33.1440698,6.0375 L34.5625814,2.29869231 L33.5789302,2.29869231 L32.9836047,4.19515385 C32.8849186,4.53276923 32.8006744,4.82515385 32.7324767,5.13207692 L32.7100116,5.13207692 C32.6410116,4.82515385 32.5647907,4.5255 32.4588837,4.19515385 L31.8563372,2.29869231 L30.8413953,2.29869231 L32.2221977,6.0375 L33.1440698,6.0375 Z M38.2476628,6.0375 L37.400407,6.0375 L37.3322093,5.62315385 L37.3097442,5.62315385 C37.0883023,5.91473077 36.6991744,6.12230769 36.2113605,6.12230769 C35.463593,6.12230769 35.0447791,5.57711538 35.0447791,5.00930769 C35.0447791,4.07238462 35.8759884,3.58857692 37.2487674,3.59665385 L37.2487674,3.53526923 C37.2487674,3.28973077 37.1492791,2.88265385 36.4937791,2.88265385 C36.1279186,2.88265385 35.7460116,2.99815385 35.4948837,3.15888462 L35.3111512,2.54503846 C35.5863488,2.37623077 36.0661395,2.21469231 36.6534419,2.21469231 C37.8432907,2.21469231 38.186686,2.97473077 38.186686,3.79615385 L38.186686,5.14015385 C38.186686,5.47696154 38.2019302,5.80730769 38.2476628,6.0375 Z M37.2712326,4.20969231 C36.6077093,4.20242308 35.9746744,4.34053846 35.9746744,4.90834615 C35.9746744,5.27746154 36.2113605,5.44626923 36.5082209,5.44626923 C36.8901279,5.44626923 37.1573023,5.20073077 37.2487674,4.93176923 C37.2712326,4.86230769 37.2712326,4.79365385 37.2712326,4.72419231 L37.2712326,4.20969231 Z M39.7993605,1.76076923 C40.1275116,1.76076923 40.3337093,1.53057692 40.3337093,1.25434615 C40.325686,0.962769231 40.1275116,0.739846154 39.8073837,0.739846154 C39.4944767,0.739846154 39.2810581,0.961961538 39.2810581,1.25434615 C39.2810581,1.53057692 39.4872558,1.76076923 39.7993605,1.76076923 Z M39.3340116,6.0375 L40.2727326,6.0375 L40.2727326,2.29869231 L39.3340116,2.29869231 L39.3340116,6.0375 Z M42.3828488,0.586384615 L41.4441279,0.586384615 L41.4441279,6.03830769 L42.3828488,6.03830769 L42.3828488,0.586384615 Z M46.5292674,6.0375 L45.6820116,6.0375 L45.613814,5.62315385 L45.5913488,5.62315385 C45.369907,5.91473077 44.9807791,6.12230769 44.4929651,6.12230769 C43.7451977,6.12230769 43.3263837,5.57711538 43.3263837,5.00930769 C43.3263837,4.07238462 44.157593,3.58857692 45.5303721,3.59665385 L45.5303721,3.53526923 C45.5303721,3.28973077 45.4308837,2.88265385 44.7753837,2.88265385 C44.4095233,2.88265385 44.0276163,2.99815385 43.7764884,3.15888462 L43.5927558,2.54503846 C43.8679535,2.37623077 44.3477442,2.21469231 44.9350465,2.21469231 C46.1248953,2.21469231 46.4682907,2.97473077 46.4682907,3.79615385 L46.4682907,5.14015385 C46.4682907,5.47696154 46.4843372,5.80730769 46.5292674,6.0375 Z M45.5528372,4.20969231 C44.889314,4.20242308 44.2562791,4.34053846 44.2562791,4.90834615 C44.2562791,5.27746154 44.4929651,5.44626923 44.7898256,5.44626923 C45.1717326,5.44626923 45.438907,5.20073077 45.5303721,4.93176923 C45.5528372,4.86230769 45.5528372,4.79365385 45.5528372,4.72419231 L45.5528372,4.20969231 L45.5528372,4.20969231 Z M48.3954767,6.0375 L47.5947558,6.0375 C47.61,5.78469231 47.6244419,5.36953846 47.6244419,4.98588462 L47.6244419,0.586384615 L48.5631628,0.586384615 L48.5631628,2.81319231 L48.578407,2.81319231 C48.8070698,2.45215385 49.2114419,2.21469231 49.7682558,2.21469231 C50.675686,2.21469231 51.3239651,2.97473077 51.3167442,4.11115385 C51.3167442,5.45515385 50.4694884,6.12311538 49.6310581,6.12311538 C49.1496628,6.12311538 48.7228256,5.93896154 48.4564535,5.47857692 L48.440407,5.47857692 L48.3954767,6.0375 Z M48.5631628,4.494 C48.5631628,4.57073077 48.571186,4.64746154 48.5856279,4.71611538 C48.6851163,5.10057692 49.0124651,5.37680769 49.4168372,5.37680769 C50.0041395,5.37680769 50.3627791,4.90834615 50.3627791,4.14830769 C50.3627791,3.48761538 50.0498721,2.9505 49.4248605,2.9505 C49.0429535,2.9505 48.6923372,3.22673077 48.5936512,3.64107692 C48.5776047,3.70973077 48.5631628,3.79453846 48.5631628,3.88661538 L48.5631628,4.494 L48.5631628,4.494 Z M53.2214651,0.586384615 L52.2827442,0.586384615 L52.2827442,6.03830769 L53.2214651,6.03830769 L53.2214651,0.586384615 Z M56.1026163,6.11423077 C54.8975233,6.11423077 54.1882674,5.36953846 54.1882674,4.22503846 C54.1882674,3.18876923 54.8132791,2.21388462 56.0031279,2.21388462 C57.2090233,2.21388462 57.6053721,3.21138462 57.6053721,4.03361538 C57.6053721,4.20969231 57.5893256,4.34861538 57.5748837,4.43261538 L55.0876744,4.43261538 C55.1109419,5.10784615 55.6292442,5.40023077 56.232593,5.40023077 C56.6666512,5.40023077 56.9723372,5.33157692 57.2619767,5.23142308 L57.3991744,5.87596154 C57.0790465,6.01488462 56.6361628,6.11423077 56.1026163,6.11423077 Z M55.0876744,3.77273077 L56.720407,3.77273077 C56.7276279,3.42703846 56.575186,2.85923077 55.9493721,2.85923077 C55.3708953,2.85923077 55.126186,3.38826923 55.0876744,3.77273077 Z M63.756,4.13376923 C63.756,5.50846154 62.7956163,6.12230769 61.8496744,6.12230769 C60.8042442,6.12230769 59.9890814,5.40023077 59.9890814,4.19515385 C59.9890814,2.96665385 60.7898023,2.21469231 61.9114535,2.21469231 C63.0162558,2.21388462 63.756,2.99653846 63.756,4.13376923 Z M62.787593,4.15638462 C62.787593,3.57323077 62.5284419,2.89719231 61.888186,2.89719231 C61.2246628,2.89719231 60.9574884,3.54980769 60.9574884,4.17173077 C60.9574884,4.89380769 61.3153256,5.43819231 61.8801628,5.43819231 C62.4137093,5.43819231 62.787593,4.91642308 62.787593,4.15638462 Z M64.7027442,6.0375 L65.6414651,6.0375 L65.6414651,3.83330769 C65.6414651,3.72588462 65.6567093,3.61119231 65.6871977,3.53365385 C65.786686,3.24934615 66.0458372,2.98038462 66.4197209,2.98038462 C66.9308023,2.98038462 67.1289767,3.38746154 67.1289767,3.92457692 L67.1289767,6.03588462 L68.0668953,6.03588462 L68.0668953,3.81715385 C68.0668953,2.63469231 67.3961512,2.21226923 66.7470698,2.21226923 C66.1292791,2.21226923 65.7257093,2.56523077 65.5580233,2.85680769 L65.5355581,2.85680769 L65.4890233,2.29626923 L64.6730581,2.29626923 C64.6883023,2.61853846 64.7027442,2.97957692 64.7027442,3.40926923 L64.7027442,6.0375 Z M26.2167907,20.5977692 L27.9281512,20.5977692 L27.9281512,12.8439231 L26.2167907,12.8439231 L26.2167907,20.5977692 Z M27.0720698,9.51219231 C26.7760116,9.51219231 26.528093,9.6075 26.3275116,9.79892308 C26.1269302,9.99034615 26.0266395,10.2350769 26.0266395,10.5323077 C26.0266395,10.8303462 26.1237209,11.0775 26.3194884,11.2737692 C26.5152558,11.4700385 26.7559535,11.5685769 27.0407791,11.5685769 C27.3576977,11.5685769 27.6168488,11.4732692 27.8174302,11.2818462 C28.0180116,11.0904231 28.1183023,10.8408462 28.1183023,10.5323077 C28.1183023,10.2342692 28.0180116,9.98953846 27.8166279,9.79892308 C27.6160465,9.6075 27.3673256,9.51219231 27.0720698,9.51219231 Z M29.322593,11.298 L32.3650116,11.298 L32.3650116,20.5977692 L34.0763721,20.5977692 L34.0763721,11.298 L37.1340349,11.298 L37.1340349,9.84576923 L29.322593,9.84576923 L29.322593,11.298 Z M44.2033256,12.8455385 L42.4919651,12.8455385 L42.4919651,17.5826538 C42.4919651,17.8281923 42.4550581,18.0454615 42.3812442,18.2376923 C42.0843837,18.9815769 41.5564535,19.3539231 40.7958488,19.3539231 C39.780907,19.3539231 39.2746395,18.6100385 39.2746395,17.1206538 L39.2746395,12.8455385 L37.5616744,12.8455385 L37.5616744,17.4065769 C37.5616744,18.5874231 37.8312558,19.4694231 38.3712209,20.0541923 C38.8245349,20.5331538 39.4326977,20.7722308 40.1933023,20.7722308 C41.2804535,20.7722308 42.0940116,20.3207308 42.6331744,19.4169231 L42.6652674,19.4169231 L42.7599419,20.5969615 L44.2651047,20.5969615 C44.2225814,19.8409615 44.2017209,19.0986923 44.2033256,18.3628846 L44.2033256,12.8455385 L44.2033256,12.8455385 Z M52.3782209,13.3875 C51.9032442,12.9198462 51.306314,12.6856154 50.5882326,12.6856154 C50.0177791,12.6856154 49.5002791,12.831 49.0349302,13.1217692 C48.6441977,13.3673077 48.3481395,13.6798846 48.1475581,14.0570769 L48.1002209,14.0570769 L48.0199884,12.8439231 L46.5140233,12.8439231 C46.5565465,13.6419231 46.5782093,14.3817692 46.5782093,15.0618462 L46.5782093,20.5977692 L48.2895698,20.5977692 L48.2895698,15.9995769 C48.2895698,15.4899231 48.4476279,15.0465 48.7645465,14.6701154 C49.0822674,14.2937308 49.4930581,14.1055385 50.0009302,14.1055385 C51.0367326,14.1055385 51.5550349,14.7896538 51.5550349,16.1586923 L51.5550349,20.5977692 L53.265593,20.5977692 L53.265593,15.9559615 C53.265593,14.8179231 52.9695349,13.9617692 52.3782209,13.3875 Z M61.3161279,13.9157308 C61.7694419,14.5731923 61.9973023,15.3873462 61.9973023,16.3549615 C61.9973023,16.6643077 61.9764419,16.9243846 61.9331163,17.1376154 L56.7998372,17.1376154 C56.8198953,17.9025 57.0694186,18.4880769 57.546,18.8919231 C57.9784535,19.2529615 58.5376744,19.4346923 59.2260698,19.4346923 C59.9858721,19.4346923 60.6782791,19.3135385 61.3008837,19.0671923 L61.5704651,20.2641923 C60.8419535,20.5832308 59.9810581,20.7423462 58.9877791,20.7423462 C57.7947209,20.7423462 56.8568023,20.3885769 56.1748256,19.6826538 C55.4928488,18.9751154 55.1534651,18.0260769 55.1534651,16.8355385 C55.1534651,15.6668077 55.471186,14.6935385 56.1050233,13.9173462 C56.7701512,13.0878462 57.6679535,12.6726923 58.7984302,12.6726923 C59.9056395,12.6710769 60.7456744,13.0846154 61.3161279,13.9157308 Z M56.7990349,15.9058846 L60.3637674,15.9058846 C60.375,15.3954231 60.2634767,14.9560385 60.0316047,14.5836923 C59.7355465,14.1039231 59.2806279,13.8648462 58.6692558,13.8648462 C58.1092326,13.8648462 57.654314,14.0982692 57.306907,14.5667308 C57.0212791,14.9398846 56.8519884,15.3865385 56.7990349,15.9058846 Z M66.6098721,16.0310769 C66.0915698,15.8404615 65.7433605,15.6651923 65.5636395,15.5060769 C65.3518256,15.3356538 65.2459186,15.1183846 65.2459186,14.8526538 C65.2459186,14.5869231 65.3462093,14.3688462 65.547593,14.2000385 C65.7473721,14.0296154 66.028186,13.9456154 66.3868256,13.9456154 C66.9372209,13.9456154 67.4595349,14.0958462 67.9561744,14.3922692 L68.3204302,13.1548846 C67.7812674,12.8415 67.1313837,12.6864231 66.3707791,12.6864231 C65.5355581,12.6864231 64.864814,12.9093462 64.3577442,13.356 C63.8506744,13.8026538 63.5971395,14.3607692 63.5971395,15.0311538 C63.5971395,16.0092692 64.2831279,16.7539615 65.6567093,17.2644231 C66.1429186,17.4453462 66.4815,17.6295 66.6716512,17.8160769 C66.8618023,18.0026538 66.9556744,18.2385 66.9556744,18.5260385 C66.9556744,19.1754231 66.5176047,19.4976923 65.6398605,19.4976923 C64.9739302,19.4976923 64.3457093,19.3175769 63.753593,18.9557308 L63.3893372,20.2318846 C64.002314,20.5832308 64.7460698,20.7576923 65.623814,20.7576923 C66.5537093,20.7576923 67.2814186,20.5396154 67.8117558,20.1042692 C68.339686,19.6705385 68.6028488,19.0914231 68.6028488,18.3709615 C68.6052558,17.3193462 67.9393256,16.5407308 66.6098721,16.0310769 Z" id="Shape"></path>
                    </g>
                </g>
            </g>
        </g>
    </g>
</svg>