<?xml version="1.0" encoding="UTF-8"?>
<svg width="546px" height="311px" viewBox="0 0 546 311" version="1.1" xmlns="http://www.w3.org/2000/svg" xmlns:xlink="http://www.w3.org/1999/xlink">
    <!-- Generator: Sketch 48.2 (47327) - http://www.bohemiancoding.com/sketch -->
    <title>squirrel-stories-logo</title>
    <desc>Created with Sketch.</desc>
    <defs></defs>
    <g id="Page-1" stroke="none" stroke-width="1" fill="none" fill-rule="evenodd">
        <g id="squirrel-stories-logo" transform="translate(-1.000000, 0.000000)">
            <g id="_x33_3T0gS.tif" fill="#2A2A2A" fill-rule="nonzero">
                <g id="XMLID_1_">
                    <path d="M67.5,310.3 C58.8,310.3 50,310.2 41.3,310.3 C37.7,310.3 35.3,309 33.7,305.8 C25.5,290.4 17.2,275 9,259.6 C7.8,257.3 7.6,255.1 8.3,252.6 C9.7,247.7 10.9,242.8 12.4,237.9 C13,235.9 12.7,234.3 11.7,232.5 C8.5,226.8 5.6,220.9 2.3,215.2 C0.7,212.4 0.6,209.8 1.7,206.9 C9.6,186.4 17.5,165.9 25.4,145.5 C26.1,143.6 26.1,142.4 24.4,141.1 C21.2,138.7 18.4,135.8 15.2,133.4 C11.7,130.8 10.9,127.6 12.1,123.5 C16.9,106.3 21.5,89 26.2,71.7 C28.3,63.9 30.6,56.2 32.5,48.3 C33.3,44.8 33.2,41 33.3,37.4 C33.6,26.5 33.8,15.6 34,4.7 C34,2.5 34.3,0.6 36.8,0.1 C38.8,-0.3 40.1,0.9 41,3.8 C44.6,15.5 48.1,27.2 51.6,38.9 C52.1,40.6 52.8,41.2 54.7,41.2 C63.3,41.1 71.9,41.1 80.4,41.2 C82.4,41.2 83,40.5 83.6,38.7 C87.1,27.1 90.6,15.5 94.1,3.8 C94.2,3.5 94.3,3.2 94.4,2.9 C95,1 96.2,-0.2 98.3,0.1 C100.4,0.4 101.1,1.9 101.2,3.9 C101.3,11.9 101.5,19.9 101.7,27.9 C101.8,33.5 101.5,39.1 102.2,44.6 C102.8,49.8 104.4,55 105.8,60.1 C111.5,81.1 117.2,102.2 123,123.2 C124.2,127.5 123.4,130.8 119.8,133.5 C116.6,135.9 113.8,138.8 110.7,141.2 C109.2,142.4 109,143.4 109.7,145.2 C117.6,165.7 125.4,186.2 133.4,206.7 C134.6,209.8 134.5,212.5 132.9,215.5 C129.5,221.5 126.3,227.6 123.2,233.8 C122.7,234.7 122.6,236 122.8,237 C124.1,242.2 125.5,247.3 127,252.4 C127.8,255.1 127.6,257.5 126.2,260.1 C118,275.2 109.9,290.3 101.9,305.4 C100,308.9 97.5,310.5 93.5,310.4 C84.7,310.2 76.1,310.3 67.5,310.3 Z M70.9,300.2 C77.7,300.2 84.1,300.1 90.6,300.2 C92.2,300.2 93.1,299.7 93.9,298.3 C101.2,284.6 108.6,270.9 115.8,257.1 C116.4,255.9 116.6,254.2 116.3,252.9 C113.6,242.5 110.7,232.2 107.9,221.8 C107.5,220.4 107.1,219 106.6,217.5 C94.6,225.5 82.9,233.3 71.2,241.1 C67.6,243.5 67.4,243.5 63.7,241 C52.7,233.7 41.7,226.3 30.7,219 C30,218.5 29.2,218.1 28.3,217.5 C25,229.8 21.7,241.9 18.5,253.9 C18.3,254.8 18.7,256 19.1,256.9 C26.1,270.1 33.3,283.3 40.2,296.5 C41.6,299.2 43.1,300.3 46.2,300.1 C52.1,299.8 58,300 64.1,300 C64.1,298.8 64.1,297.9 64.1,297 C64.1,291.8 64,286.7 64.2,281.5 C64.3,280.3 65.3,278.7 66.3,278 C67,277.5 68.9,277.9 69.6,278.5 C70.4,279.3 70.8,280.8 70.9,282.1 C71,288.2 70.9,294 70.9,300.2 Z M45.5,155 C45.2,155.6 45.1,155.9 45,156.2 C40.2,173.8 35.4,191.4 30.6,208.9 C30.2,210.4 30.7,211.1 31.9,211.9 C43.2,219.3 54.4,226.8 65.6,234.4 C67,235.3 67.9,235.4 69.3,234.4 C80.4,226.9 91.6,219.5 102.8,212.1 C104.4,211 104.7,210.1 104.2,208.2 C99.8,192.5 95.6,176.7 91.3,161 C90.8,159 90.2,157.1 89.5,154.8 C82.9,160.4 76.7,165.8 70.4,171.2 C68,173.2 66.9,173.2 64.5,171.2 C60.2,167.6 56,163.9 51.8,160.3 C49.8,158.6 47.8,156.9 45.5,155 Z M67.5,81.3 C52.8,96.3 38.3,111.2 23.7,126.2 C24.2,126.6 24.4,126.8 24.7,127 C38.5,135.3 52.4,143.7 66.3,151.9 C67,152.3 68.5,152.1 69.3,151.7 C77.6,146.9 85.7,141.9 93.9,137 C99.7,133.5 105.4,130.1 111.5,126.4 C96.7,111.1 82.2,96.3 67.5,81.3 Z M25.1,114.3 C25.2,114.4 25.4,114.5 25.5,114.6 C37.9,101.9 50.3,89.3 63.1,76.2 C55.6,69.2 48.3,62.4 41.1,55.6 C39.6,61.2 37.9,67.3 36.3,73.4 C41,73.1 43.5,74.3 44.7,77.4 C45.7,79.9 44.9,82.9 42.7,84.6 C40.2,86.6 37.5,86.4 33.4,83.7 C30.7,93.9 27.9,104.1 25.1,114.3 Z M71.9,76.1 C84.8,89.3 97.2,102 109.6,114.6 C109.7,114.5 109.8,114.4 110,114.4 C107.2,104.2 104.4,94 101.6,83.6 C98,86.3 95.3,86.6 92.7,84.8 C90.5,83.2 89.3,80.2 90.4,77.8 C91.1,76.3 92.3,74.8 93.7,74 C95.1,73.2 97,73.4 98.8,73.1 C97.2,67.2 95.5,61.1 94,55.6 C86.7,62.3 79.4,69.1 71.9,76.1 Z M19.1,225.3 C19.5,223.9 19.8,223 20,222.2 C26.2,199.3 32.5,176.3 38.7,153.4 C39.8,149.5 39.4,148.7 35.6,147 C27.6,167.7 19.7,188.4 11.7,209.1 C11.5,209.7 11.3,210.5 11.5,211 C14,215.6 16.4,220.2 19.1,225.3 Z M99.3,146.8 C95.2,149.5 95.2,149.4 96.3,153.6 C100.7,169.8 105.1,186 109.5,202.2 C111.5,209.7 113.6,217.2 115.8,225.3 C118.5,220.3 121,215.8 123.3,211.2 C123.6,210.7 123.4,209.7 123.2,209.1 C115.3,188.4 107.3,167.7 99.3,146.8 Z M87.4,51.4 C73.9,51.4 61.1,51.4 47.7,51.4 C54.9,58.1 61.6,64.3 67.5,69.8 C73.5,64.2 80.2,58.1 87.4,51.4 Z" id="XMLID_67_"></path>
                    <path d="M67.9,98.8 C70.5,98.2 72.2,99.6 73.5,102 C75.4,105.5 77.5,108.9 79.6,112.3 C80.9,114.3 80.6,116 78.9,117.6 C76.5,119.8 74.1,122.1 71.6,124.3 C70.3,125.5 70.8,130 72.4,130.8 C74.7,131.8 77,132.8 79.3,133.8 C81.5,134.8 82.3,136.5 81.6,138.4 C80.9,140.2 79,140.9 76.8,140 C74.3,139 72,137.8 69.4,137 C68.3,136.6 66.8,136.7 65.7,137 C63.3,137.8 61,139 58.6,139.9 C56.3,140.8 54.5,140.2 53.7,138.5 C52.9,136.6 53.7,134.8 56,133.8 C57.6,133.1 59.2,132.4 60.8,131.7 C64.3,130.2 64.8,129.2 64.1,125.5 C64,125.1 63.7,124.6 63.4,124.3 C60.8,121.9 58.2,119.5 55.6,117 C54.2,115.6 54.4,114 55.3,112.4 C57.6,108.6 60,104.7 62.2,100.8 C63.5,98.7 65.5,98.7 67.9,98.8 Z" id="XMLID_56_"></path>
                </g>
            </g>
            <rect id="Rectangle-path" x="160.9" y="85.1" width="402.9" height="177.2"></rect>
            <g id="Group" transform="translate(160.865800, 62.147000)" fill="#2A2A2A" font-family="Montserrat-Bold, Montserrat" font-size="96" font-weight="bold">
                <text id="Squirrel">
                    <tspan x="0" y="93">Squirrel</tspan>
                </text>
                <text id="Stories">
                    <tspan x="0" y="196.2">Stories</tspan>
                </text>
            </g>
        </g>
    </g>
</svg>