<?xml version="1.0" encoding="UTF-8"?>
<svg width="256px" height="256px" viewBox="0 0 256 256" version="1.1" xmlns="http://www.w3.org/2000/svg" xmlns:xlink="http://www.w3.org/1999/xlink">
    <!-- Generator: Sketch 48.2 (47327) - http://www.bohemiancoding.com/sketch -->
    <title>apple</title>
    <desc>Created with Sketch.</desc>
    <defs></defs>
    <g id="Page-1" stroke="none" stroke-width="1" fill="none" fill-rule="evenodd">
        <g id="apple" fill="#000000">
            <path d="M218.749468,89.1775156 C207.038318,74.0306992 190.594951,65.2558438 175.063296,65.2558438 C154.517229,65.2558438 145.845117,75.3823273 131.615907,75.3823273 C116.919987,75.3823273 105.751522,65.266571 88.0165648,65.266571 C70.5746573,65.266571 52.0365255,76.2619582 40.2711069,95.0452979 C23.7192034,121.509318 26.5411673,171.251377 53.349824,213.634572 C62.9553549,228.802843 75.7627294,245.837648 92.5099996,245.998556 C107.401286,246.13801 111.623378,236.129526 131.811273,236.022254 C152.03173,235.904254 155.852235,246.105828 170.732667,245.955647 C187.490791,245.826921 201.025364,226.925582 210.609187,211.778766 C217.479584,200.89065 220.041059,195.419775 225.359375,183.14785 C186.57908,167.915216 180.359905,111.028836 218.749468,89.1775156 M124.419899,66.7898344 C121.999522,53.0590093 128.22955,38.9098231 135.794584,29.4162448 C144.108523,18.9250363 158.370295,10.8581766 170.569862,10 C172.610359,24.3315487 166.944723,38.3734628 159.49908,48.3068565 C151.521605,58.9697004 137.759105,67.2189227 124.419899,66.7898344" id="Fill-4"></path>
        </g>
    </g>
</svg>