<?xml version="1.0" encoding="UTF-8"?>
<svg width="256px" height="256px" viewBox="0 0 256 256" version="1.1" xmlns="http://www.w3.org/2000/svg" xmlns:xlink="http://www.w3.org/1999/xlink">
    <!-- Generator: Sketch 48.2 (47327) - http://www.bohemiancoding.com/sketch -->
    <title>close</title>
    <desc>Created with Sketch.</desc>
    <defs></defs>
    <g id="Page-1" stroke="none" stroke-width="1" fill="none" fill-rule="evenodd">
        <g id="close" fill="#000000" fill-rule="nonzero">
            <g id="1126-cancel-square" transform="translate(10.000000, 10.000000)">
                <path d="M206.448375,29.5 C206.466813,29.51475 206.48525,29.5331875 206.5,29.551625 L206.5,206.444688 C206.48525,206.463125 206.466813,206.481562 206.448375,206.496313 L29.5553125,206.496313 C29.536875,206.481563 29.5184375,206.463125 29.5036875,206.444688 L29.5036875,29.551625 C29.5184375,29.5331875 29.536875,29.51475 29.5553125,29.5 L206.448375,29.5 Z M206.5,0 L29.5,0 C13.275,0 0,13.275 0,29.5 L0,206.5 C0,222.725 13.275,236 29.5,236 L206.5,236 C222.725,236 236,222.725 236,206.5 L236,29.5 C236,13.275 222.725,0 206.5,0 Z" id="Shape"></path>
                <polygon id="Shape" points="154.875 59 118 95.875 81.125 59 59 81.125 95.875 118 59 154.875 81.125 177 118 140.125 154.875 177 177 154.875 140.125 118 177 81.125"></polygon>
            </g>
        </g>
    </g>
</svg>