<?xml version="1.0" encoding="UTF-8"?>
<svg width="256px" height="256px" viewBox="0 0 256 256" version="1.1" xmlns="http://www.w3.org/2000/svg" xmlns:xlink="http://www.w3.org/1999/xlink">
    <!-- Generator: Sketch 48.2 (47327) - http://www.bohemiancoding.com/sketch -->
    <title>google-play</title>
    <desc>Created with Sketch.</desc>
    <defs></defs>
    <g id="Page-1" stroke="none" stroke-width="1" fill="none" fill-rule="evenodd">
        <g id="google-play" fill="#000000">
            <path d="M140.928387,126.586145 L140.787288,126.586145 L140.363991,126.328691 L21.3957783,12.6839636 L20.1475943,11.4825091 L19.5831981,11.0748727 C18.7583113,12.1583273 18.1830613,13.6923273 18.1830613,15.6339636 L18.1830613,127.6696 L18.1830613,241.839964 C18.1830613,243.052145 18.4544057,244.092691 18.8885566,244.918691 L19.0296557,244.800691 L19.1707547,244.800691 L20.7011368,243.180873 L141.905226,127.540873 L140.928387,126.586145 Z M233.076925,123.646873 C232.848995,123.453782 232.512528,123.271418 232.23033,123.110509 L231.405443,122.563418 C226.781736,120.181964 189.390486,99.2745091 184.202382,96.4103273 L183.518594,97.0754182 L183.366642,97.0754182 L182.259557,98.2876 L168.008552,111.836145 L152.802415,126.328691 L152.498509,126.468145 L152.498509,126.586145 L151.402278,127.540873 L182.259557,157.0516 L183.366642,158.253055 L183.518594,158.253055 L184.202382,158.928873 L230.982146,132.904509 C236.105127,130.061782 236.409033,126.2536 233.076925,123.646873 L233.076925,123.646873 Z M146.648325,132.099964 L30.6106321,242.773236 L30.469533,242.923418 L27.1265708,246.002145 C32.2386981,243.159418 129.325703,189.3836 129.325703,189.3836 L178.211099,162.136327 L176.669863,160.795418 L146.648325,132.099964 Z M19.5831981,11.0641455 L19.5831981,11.0748727 C19.5940519,11.0748727 19.5940519,11.0641455 19.5940519,11.0641455 L19.5831981,11.0641455 Z M30.3392877,12.1476 L27.9623113,10.0021455 C28.2336557,10.1308727 28.5267075,10.1308727 28.7980519,10.2703273 C28.9391509,10.3346909 29.0911038,10.3239636 29.2213491,10.4097818 L129.325703,65.9556 L178.211099,93.1814182 L176.669863,94.5223273 L158.934797,111.428509 L146.648325,123.110509 L30.7517311,12.4265091 L30.6106321,12.4265091 L30.3392877,12.1476 Z" id="Fill-1"></path>
        </g>
    </g>
</svg>