<?xml version="1.0" encoding="UTF-8"?>
<svg width="256px" height="256px" viewBox="0 0 256 256" version="1.1" xmlns="http://www.w3.org/2000/svg" xmlns:xlink="http://www.w3.org/1999/xlink">
    <!-- Generator: Sketch 48.2 (47327) - http://www.bohemiancoding.com/sketch -->
    <title>mic</title>
    <desc>Created with Sketch.</desc>
    <defs></defs>
    <g id="Page-1" stroke="none" stroke-width="1" fill="none" fill-rule="evenodd">
        <g id="mic" fill="#231F20" fill-rule="nonzero">
            <path d="M196.835551,114.674304 L183.052159,114.674304 L183.052159,79.1391162 L183.496784,79.1391162 C193.278546,79.1391162 200.837181,72.1865794 200.837181,64.0752864 C200.837181,55.9639935 192.833921,49.0114566 183.496784,49.0114566 L168.379515,49.0114566 C162.154758,42.8314239 154.151498,38.1963993 145.703612,35.492635 C147.037489,33.1751227 147.92674,30.0851064 147.92674,27.3813421 C147.92674,17.7250409 139.034229,10 127.91859,10 C116.802952,10 107.91044,17.7250409 107.91044,27.3813421 C107.91044,30.0851064 108.799692,32.7888707 110.133568,35.492635 C101.241057,38.1963993 93.2377973,42.8314239 87.0130396,49.3977087 L72.785022,49.3977087 C63.0032599,49.3977087 55.4446256,56.3502455 55.4446256,64.4615385 C55.4446256,72.5728314 63.4478855,79.5253682 72.785022,79.5253682 L73.2296476,79.5253682 L73.2296476,80.6841244 L73.2296476,114.674304 L59.4462555,114.674304 C56.7785022,114.674304 55,116.219313 55,118.536825 L55,153.299509 C55,183.813421 79.8990308,209.306056 113.245947,215.486088 L113.245947,238.274959 L95.4609251,238.274959 C92.7931718,238.274959 91.0146696,239.819967 91.0146696,242.13748 C91.0146696,244.454992 92.7931718,246 95.4609251,246 L161.265507,246 C163.93326,246 165.711762,244.454992 165.711762,242.13748 C165.711762,239.819967 163.93326,238.274959 161.265507,238.274959 L143.480485,238.274959 L143.480485,215.486088 C176.827401,209.306056 201.726432,183.813421 201.726432,153.299509 L201.726432,118.536825 C201.281806,116.605565 199.503304,114.674304 196.835551,114.674304 Z M183.496784,56.7364975 C188.387665,56.7364975 191.94467,60.212766 191.94467,64.0752864 C191.94467,67.9378069 187.94304,71.4140753 183.496784,71.4140753 L180.829031,71.4140753 L169.713392,56.7364975 L183.496784,56.7364975 L183.496784,56.7364975 Z M82.1221586,114.674304 L82.1221586,80.6841244 L82.1221586,79.5253682 L174.159647,79.5253682 L174.159647,115.060556 L82.1221586,115.060556 L82.1221586,114.674304 Z M174.159647,122.399345 L174.159647,147.89198 C174.159647,169.908347 153.706872,187.675941 128.363216,187.675941 C103.019559,187.675941 82.5667841,169.908347 82.5667841,147.89198 L82.5667841,122.399345 L174.159647,122.399345 Z M136.811101,71.8003273 L119.91533,71.8003273 L128.363216,60.212766 L136.811101,71.8003273 Z M136.366476,56.7364975 L153.262247,56.7364975 L144.814361,68.3240589 L136.366476,56.7364975 Z M111.467445,68.3240589 L103.019559,56.7364975 L119.91533,56.7364975 L111.467445,68.3240589 Z M170.158018,71.8003273 L153.262247,71.8003273 L161.710132,60.212766 L170.158018,71.8003273 Z M127.91859,17.7250409 C134.143348,17.7250409 139.034229,21.9738134 139.034229,27.3813421 C139.034229,29.6988543 138.144978,31.6301146 136.366476,33.5613748 C134.587974,33.1751227 132.364846,33.1751227 130.586344,32.7888707 C126.584714,32.7888707 123.027709,32.7888707 119.026079,33.5613748 C117.247577,32.0163666 116.358326,29.6988543 116.358326,27.3813421 C116.802952,21.9738134 122.138458,17.7250409 127.91859,17.7250409 Z M130.586344,40.5139116 C139.478855,40.9001637 148.371366,43.99018 155.485374,49.0114566 L99.9071806,49.0114566 C108.355066,43.2176759 119.026079,40.1276596 130.586344,40.5139116 Z M94.571674,60.212766 L103.019559,71.8003273 L86.1237885,71.8003273 L94.571674,60.212766 Z M72.785022,71.8003273 C67.894141,71.8003273 64.3371366,68.3240589 64.3371366,64.4615385 C64.3371366,60.599018 68.3387665,57.1227496 72.785022,57.1227496 L86.5684141,57.1227496 L75.4527753,71.8003273 L72.785022,71.8003273 L72.785022,71.8003273 Z M134.143348,238.274959 L121.693833,238.274959 L121.693833,216.644845 C123.91696,216.644845 125.695463,217.031097 127.91859,217.031097 C130.141718,217.031097 131.92022,217.031097 134.143348,216.644845 L134.143348,238.274959 L134.143348,238.274959 Z M192.389295,153.299509 C192.389295,184.199673 163.488634,209.306056 127.91859,209.306056 C92.3485462,209.306056 63.4478855,184.199673 63.4478855,153.299509 L63.4478855,122.399345 L72.785022,122.399345 L72.785022,147.89198 C72.785022,174.157119 97.2394273,195.400982 127.473965,195.400982 C157.708502,195.400982 182.162907,174.157119 182.162907,147.89198 L182.162907,122.399345 L191.500044,122.399345 L191.500044,153.299509 L192.389295,153.299509 Z" id="Mic-SVG"></path>
        </g>
    </g>
</svg>