<?xml version="1.0" encoding="UTF-8"?>
<svg width="256px" height="256px" viewBox="0 0 256 256" version="1.1" xmlns="http://www.w3.org/2000/svg" xmlns:xlink="http://www.w3.org/1999/xlink">
    <!-- Generator: Sketch 48.2 (47327) - http://www.bohemiancoding.com/sketch -->
    <title>twitter</title>
    <desc>Created with Sketch.</desc>
    <defs></defs>
    <g id="Page-1" stroke="none" stroke-width="1" fill="none" fill-rule="evenodd">
        <g id="twitter" fill="#000000" fill-rule="nonzero">
            <path d="M245.992625,54.7039375 C237.308562,58.5536875 227.979187,61.1570625 218.185187,62.326 C228.182,56.3338125 235.859375,46.845875 239.473125,35.54 C230.117937,41.0896875 219.756062,45.1164375 208.72675,47.288375 C199.895187,37.877875 187.30975,32 173.38575,32 C146.647687,32 124.968875,53.6788125 124.968875,80.416875 C124.968875,84.2113125 125.396625,87.9061875 126.222625,91.449875 C85.984625,89.429125 50.304375,70.1545625 26.424125,40.8610625 C22.25725,48.011125 19.86775,56.330125 19.86775,65.20225 C19.86775,82.0025 28.415375,96.8225625 41.4064375,105.502938 C33.4709375,105.252188 26.00375,103.072875 19.476875,99.4480625 C19.4731875,99.650875 19.4731875,99.8536875 19.4731875,100.0565 C19.4731875,123.516375 36.1628125,143.08225 58.313625,147.533062 C54.25,148.639312 49.9725,149.233 45.5585625,149.233 C42.4389375,149.233 39.404125,148.926937 36.4504375,148.36275 C42.61225,167.59675 60.4929375,181.598187 81.6813125,181.985375 C65.1096875,194.97275 44.23475,202.712812 21.54925,202.712812 C17.6405,202.712812 13.7870625,202.484188 10,202.034312 C31.4280625,215.773938 56.8791875,223.790562 84.222,223.790562 C173.278812,223.790562 221.979625,150.011063 221.979625,86.02925 C221.979625,83.9310625 221.931687,81.84025 221.8395,79.7641875 C231.301625,72.938625 239.51,64.4094375 246,54.70025 L245.992625,54.7039375 Z" id="Shape"></path>
        </g>
    </g>
</svg>